<?xml version="1.0" standalone="no"?>
<svg xmlns="http://www.w3.org/2000/svg" viewBox="0 0 115.65600000000002 21" width="115.65600000000002" height="21"><path fill="#ffff00" fill-rule="nonzero" d="M8.52 20.81L0 20.81L0 0.19L8.26 0.19L8.26 4.18L4.20 4.18L4.20 8.18L8.09 8.18L8.09 12.07L4.20 12.07L4.20 16.80L8.52 16.80L8.52 20.81ZM13.34 20.81L9.34 20.81L11.33 0.19L18.31 0.19L20.28 20.81L16.37 20.81L16.08 17.47L13.58 17.47L13.34 20.81ZM14.66 3.70L13.90 14.18L15.77 14.18L14.86 3.70L14.66 3.70ZM26.42 21Q23.62 21 22.37 19.61Q21.12 18.22 21.12 15.12L21.12 15.12L21.12 13.10L25.18 13.10L25.18 15.67Q25.18 17.21 26.16 17.21L26.16 17.21Q26.71 17.21 26.93 16.88Q27.14 16.56 27.14 15.79L27.14 15.79Q27.14 14.78 26.90 14.12Q26.66 13.46 26.29 13.02Q25.92 12.58 24.96 11.64L24.96 11.64L23.18 9.86Q21.12 7.85 21.12 5.40L21.12 5.40Q21.12 2.76 22.33 1.38Q23.54 0 25.87 0L25.87 0Q28.66 0 29.88 1.48Q31.10 2.95 31.10 6.10L31.10 6.10L26.90 6.10L26.88 4.68Q26.88 4.27 26.65 4.03Q26.42 3.79 26.02 3.79L26.02 3.79Q25.54 3.79 25.30 4.06Q25.06 4.32 25.06 4.78L25.06 4.78Q25.06 5.78 26.21 6.86L26.21 6.86L28.61 9.17Q29.45 9.98 30 10.72Q30.55 11.45 30.89 12.44Q31.22 13.44 31.22 14.81L31.22 14.81Q31.22 17.86 30.11 19.43Q28.99 21 26.42 21L26.42 21ZM38.98 20.81L35.09 20.81L35.09 14.02L31.80 0.19L35.88 0.19L37.03 7.18L38.18 0.19L42.26 0.19L38.98 14.02L38.98 20.81ZM54.82 20.81L50.69 20.81L50.69 4.15L48.24 4.15L48.24 0.19L57.26 0.19L57.26 4.15L54.82 4.15L54.82 20.81ZM62.21 20.81L58.22 20.81L58.22 0.19L62.21 0.19L62.21 20.81ZM68.66 21Q66.41 21 65.05 19.58Q63.70 18.17 63.70 15.70L63.70 15.70L63.70 6.19Q63.70 3.12 64.92 1.56Q66.14 0 68.76 0L68.76 0Q71.04 0 72.43 1.25Q73.82 2.50 73.82 4.85L73.82 4.85L73.82 8.40L69.72 8.40L69.72 5.35Q69.72 4.46 69.50 4.13Q69.29 3.79 68.76 3.79L68.76 3.79Q68.21 3.79 68.00 4.18Q67.80 4.56 67.80 5.30L67.80 5.30L67.80 15.65Q67.80 16.46 68.04 16.84Q68.28 17.21 68.76 17.21L68.76 17.21Q69.72 17.21 69.72 15.65L69.72 15.65L69.72 11.93L73.87 11.93L73.87 15.82Q73.87 21 68.66 21L68.66 21ZM79.34 20.81L75.24 20.81L75.24 0.19L79.32 0.19L79.32 8.45L81.24 0.19L85.39 0.19L83.09 9.62L85.87 20.81L81.60 20.81L79.34 10.82L79.34 20.81ZM95.09 20.81L86.57 20.81L86.57 0.19L94.82 0.19L94.82 4.18L90.77 4.18L90.77 8.18L94.66 8.18L94.66 12.07L90.77 12.07L90.77 16.80L95.09 16.80L95.09 20.81ZM102.36 20.81L98.23 20.81L98.23 4.15L95.78 4.15L95.78 0.19L104.81 0.19L104.81 4.15L102.36 4.15L102.36 20.81ZM110.86 21Q108.05 21 106.80 19.61Q105.55 18.22 105.55 15.12L105.55 15.12L105.55 13.10L109.61 13.10L109.61 15.67Q109.61 17.21 110.59 17.21L110.59 17.21Q111.14 17.21 111.36 16.88Q111.58 16.56 111.58 15.79L111.58 15.79Q111.58 14.78 111.34 14.12Q111.10 13.46 110.72 13.02Q110.35 12.58 109.39 11.64L109.39 11.64L107.62 9.86Q105.55 7.85 105.55 5.40L105.55 5.40Q105.55 2.76 106.76 1.38Q107.98 0 110.30 0L110.30 0Q113.09 0 114.31 1.48Q115.54 2.95 115.54 6.10L115.54 6.10L111.34 6.10L111.31 4.68Q111.31 4.27 111.08 4.03Q110.86 3.79 110.45 3.79L110.45 3.79Q109.97 3.79 109.73 4.06Q109.49 4.32 109.49 4.78L109.49 4.78Q109.49 5.78 110.64 6.86L110.64 6.86L113.04 9.17Q113.88 9.98 114.43 10.72Q114.98 11.45 115.32 12.44Q115.66 13.44 115.66 14.81L115.66 14.81Q115.66 17.86 114.54 19.43Q113.42 21 110.86 21L110.86 21Z"></path></svg>